<svg id="adobe-xd-logo" xmlns="http://www.w3.org/2000/svg" width="347.21" height="338.53" viewBox="0 0 347.21 338.53">
  <path id="Tracé_164" data-name="Tracé 164" d="M61.485,0h224.24A61.427,61.427,0,0,1,347.21,61.485v215.56a61.427,61.427,0,0,1-61.485,61.485H61.485A61.427,61.427,0,0,1,0,277.045V61.485A61.427,61.427,0,0,1,61.485,0Z" transform="translate(0 0)" fill="#470137"/>
  <path id="Tracé_165" data-name="Tracé 165" d="M166.957,66.06l-43.4,71.612,46.295,75.952a2.488,2.488,0,0,1,.289,1.736c-.145.579-.723.145-1.591.289h-33.13c-2.315,0-3.906-.145-4.919-1.591-3.038-6.076-6.221-12.008-9.259-18.084s-6.366-12.008-9.838-18.229-6.944-12.442-10.416-18.807H100.7C97.659,165.16,94.332,171.38,91,177.6s-6.655,12.442-9.838,18.518-6.655,12.3-9.982,18.229c-.579,1.447-1.736,1.591-3.327,1.591H36.03c-.579,0-1.013.289-1.013-.434a2.011,2.011,0,0,1,.289-1.591L80.3,140.132,36.464,65.915c-.434-.579-.579-1.157-.289-1.447a1.678,1.678,0,0,1,1.447-.579h32.84a8.536,8.536,0,0,1,2.025.289,4.109,4.109,0,0,1,1.447,1.3c2.749,6.221,5.931,12.442,9.259,18.663s6.8,12.3,10.416,18.373,6.655,12.152,9.693,18.373h.289c3.038-6.366,6.221-12.586,9.4-18.663S119.5,90.075,122.832,84s6.51-12.3,9.693-18.229a2.459,2.459,0,0,1,.868-1.447,2.763,2.763,0,0,1,1.881-.289H165.8a1.331,1.331,0,0,1,1.591,1.013c.145.145-.145.723-.434,1.013Zm66.838,152.628a71.93,71.93,0,0,1-31.1-6.51A50.432,50.432,0,0,1,180.845,192.5c-5.353-8.825-7.957-19.82-7.957-32.985a59.417,59.417,0,0,1,7.957-30.526,60.082,60.082,0,0,1,23-22.424c10.127-5.642,22.279-8.391,36.6-8.391a25.839,25.839,0,0,1,3.038.145c1.3.145,2.749.145,4.485.289V52.9c0-1.013.434-1.591,1.447-1.591h29.368a1.3,1.3,0,0,1,1.447,1.013V190.332c0,2.6.145,5.5.289,8.68s.434,5.932.579,8.391a2.344,2.344,0,0,1-1.447,2.315,110.484,110.484,0,0,1-23.581,6.944,127.615,127.615,0,0,1-22.279,2.025Zm14.178-28.934V126.1a37.008,37.008,0,0,0-3.906-.723c-1.591-.145-3.183-.289-4.774-.289a35.661,35.661,0,0,0-16.348,3.761,32.435,32.435,0,0,0-12.3,10.706c-3.183,4.629-4.774,10.85-4.774,18.373a40.319,40.319,0,0,0,2.459,14.9,28.269,28.269,0,0,0,6.51,10.272,25,25,0,0,0,9.838,5.787,37.875,37.875,0,0,0,12.008,1.881c2.17,0,4.2-.145,6.076-.289A12.658,12.658,0,0,0,247.972,189.754Z" transform="translate(15.618 22.912)" fill="#ff61f6"/>
</svg>
