<svg id="background" xmlns="http://www.w3.org/2000/svg" width="1920" height="1080" viewBox="0 0 1920 1080">
  <path id="Tracé_13" data-name="Tracé 13" d="M0,185.092H29.227c29.013,0,87.467,0,145.707-3.594A1435.485,1435.485,0,0,0,349.44,159.933c58.027-10.782,115.627-25.158,173.653-16.173,57.813,8.985,116.267,41.331,174.507,44.925s116.693-21.564,174.933-41.331,116.693-34.143,174.933-44.925S1164.16,84.459,1222.4,91.647s116.693,28.752,174.507,34.143c58.027,5.391,115.627-5.391,173.653-14.376,57.813-8.985,116.267-16.173,174.507,5.391s116.693,71.88,145.707,97.038L1920,239V0H0Z" fill="#4facf7"/>
  <path id="Tracé_14" data-name="Tracé 14" d="M0,589.385l29.227-23.361c29.013-23.361,87.467-70.083,145.707-71.88s116.693,41.331,174.507,30.549c58.027-10.782,115.627-75.474,173.653-68.286,57.813,7.188,116.267,86.256,174.507,77.271s116.693-106.023,174.933-118.6,116.693,59.3,174.933,57.5S1164.16,395.308,1222.4,355.774s116.693-43.128,174.507-46.722c58.027-3.594,115.627-7.188,173.653,23.361,57.813,30.549,116.267,95.241,174.507,125.79s116.693,26.955,145.707,25.158l29.227-1.8V197.638l-29.227-25.158c-29.013-25.158-87.467-75.474-145.707-97.038S1628.373,61.065,1570.56,70.05c-58.027,8.985-115.627,19.767-173.653,14.376-57.813-5.391-116.267-26.955-174.507-34.143s-116.693,0-174.933,10.782S930.773,86.223,872.533,105.99,755.84,150.916,697.6,147.322,580.907,111.381,523.093,102.4c-58.027-8.985-115.627,5.391-173.653,16.173a1435.485,1435.485,0,0,1-174.507,21.564c-58.24,3.594-116.693,3.594-145.707,3.594H0Z" transform="translate(0 37.77)" fill="#2b9dfc"/>
  <path id="Tracé_15" data-name="Tracé 15" d="M0,659.256,29.227,634.1c29.013-25.158,87.467-75.474,145.707-75.474S291.627,608.94,349.44,605.345c58.027-3.594,115.627-61.1,173.653-71.88,57.813-10.782,116.267,25.158,174.507,30.549s116.693-19.767,174.933-19.767,116.693,25.158,174.933,3.594S1164.16,457.991,1222.4,434.63s116.693-1.8,174.507-1.8c58.027,0,115.627-21.564,173.653,0,57.813,21.564,116.267,86.256,174.507,123.993s116.693,48.519,145.707,53.91L1920,616.128V364.547l-29.227,1.8c-29.013,1.8-87.467,5.391-145.707-25.158S1628.373,245.944,1570.56,215.4c-58.027-30.549-115.627-26.955-173.653-23.361-57.813,3.594-116.267,7.188-174.507,46.722s-116.693,115.008-174.933,116.805-116.693-70.083-174.933-57.5S755.84,407.675,697.6,416.66s-116.693-70.083-174.507-77.271c-58.027-7.188-115.627,57.5-173.653,68.286-57.813,10.782-116.267-32.346-174.507-30.549S58.24,425.645,29.227,449.006L0,472.367Z" transform="translate(0 151.194)" fill="#008cff"/>
  <path id="Tracé_16" data-name="Tracé 16" d="M0,665.088l29.227-14.376c29.013-14.376,87.467-43.128,145.707-46.722s116.693,17.97,174.507,8.985c58.027-8.985,115.627-48.519,173.653-57.5,57.813-8.985,116.267,12.579,174.507,10.782S814.293,539.3,872.533,544.688s116.693,41.331,174.933,17.97S1164.16,456.635,1222.4,435.071s116.693,17.97,174.507,16.173c58.027-1.8,115.627-44.925,173.653-32.346,57.813,12.579,116.267,80.865,174.507,120.4S1861.76,589.613,1890.773,595L1920,600.4v-89.85l-29.227-5.391c-29.013-5.391-87.467-16.173-145.707-53.91S1628.373,348.815,1570.56,327.251c-58.027-21.564-115.627,0-173.653,0-57.813,0-116.267-21.564-174.507,1.8s-116.693,91.647-174.933,113.211-116.693-3.594-174.933-3.594S755.84,463.823,697.6,458.432,580.907,417.1,523.093,427.883c-58.027,10.782-115.627,68.286-173.653,71.88-57.813,3.594-116.267-46.722-174.507-46.722S58.24,503.357,29.227,528.515L0,553.673Z" transform="translate(0 253.182)" fill="#007aff"/>
  <path id="Tracé_17" data-name="Tracé 17" d="M0,784.532H1920V554.516l-29.227-5.391c-29.013-5.391-87.467-16.173-145.707-55.707s-116.693-107.82-174.507-120.4c-58.027-12.579-115.627,30.549-173.653,32.346-57.813,1.8-116.267-37.737-174.507-16.173s-116.693,104.226-174.933,127.587S930.773,504.2,872.533,498.809,755.84,518.576,697.6,520.373s-116.693-19.767-174.507-10.782c-58.027,8.985-115.627,48.519-173.653,57.5-57.813,8.985-116.267-12.579-174.507-8.985S58.24,590.456,29.227,604.832L0,619.208Z" transform="translate(0 295.468)" fill="#06f"/>
</svg>
