<svg xmlns="http://www.w3.org/2000/svg" width="318.348" height="318.745" viewBox="0 0 318.348 318.745">
  <g id="Groupe_16" data-name="Groupe 16" transform="translate(0.174 -58.479)">
    <g id="Rectangle_37" data-name="Rectangle 37" transform="translate(82 106)" fill="#fff" stroke="#707070" stroke-width="1">
      <rect width="173" height="233" stroke="none"/>
      <rect x="0.5" y="0.5" width="172" height="232" fill="none"/>
    </g>
    <path id="bootstrap-5-seeklogo.com" d="M66.122,0c-18.164,0-31.605,19.983-31,41.654.578,20.82-.173,47.785-5.574,69.775C24.125,133.48,14.965,147.454,0,149.247V169.5c14.965,1.8,24.125,15.764,29.544,37.819,5.4,21.99,6.151,48.955,5.574,69.774-.6,21.668,12.839,41.654,31.007,41.654H252.25c18.164,0,31.6-19.983,31-41.654-.578-20.82.173-47.785,5.574-69.774,5.42-22.055,14.558-36.027,29.523-37.819v-20.25c-14.965-1.8-24.1-15.764-29.523-37.819-5.4-21.987-6.151-48.955-5.574-69.775C283.853,19.986,270.415,0,252.25,0H66.119ZM215.829,196.208c0,29.84-17.709,47.937-47.1,47.937H118.706c-2.98,0-5.4-3.036-5.4-6.782V81.382c0-3.746,2.416-6.782,5.4-6.782h49.742c24.5,0,40.587,16.683,40.587,42.3,0,17.978-10.819,34.073-24.6,36.893v.938C203.2,157.316,215.829,173.649,215.829,196.208ZM163.278,96.1H134.753V146.74h24.025c18.572,0,28.813-9.4,28.813-26.2C187.589,104.793,178.785,96.1,163.278,96.1Zm-28.524,70.734V222.64h29.574c19.337,0,29.58-9.752,29.58-28.08s-10.53-27.731-30.823-27.731h-28.33Z" transform="translate(-0.174 58.479)" fill="#7952b3" fill-rule="evenodd"/>
  </g>
</svg>
