<svg xmlns="http://www.w3.org/2000/svg" width="258.217" height="324.599" viewBox="0 0 258.217 324.599">
  <g id="SVG" transform="translate(-1244 -5988)">
    <g id="undraw_ether_re_y7ft" transform="translate(1244 5988)">
      <path id="Tracé_118" data-name="Tracé 118" d="M84.67,125.27a2.2,2.2,0,0,1-1.6-3.815l.151-.6-.06-.144a5.911,5.911,0,0,0-10.9.04c-1.783,4.3-4.054,8.6-4.613,13.14a17.489,17.489,0,0,0,.307,6.014,70.113,70.113,0,0,1-6.378-29.12,67.672,67.672,0,0,1,.42-7.549q.348-3.083.965-6.121a70.926,70.926,0,0,1,14.065-30.06,18.875,18.875,0,0,0,7.85-8.145,14.4,14.4,0,0,0,1.309-3.935c-.382.05-.771.081-1.153.106l-.363.019-.045,0a2.181,2.181,0,0,1-1.791-3.553l.5-.609c.251-.313.507-.62.758-.933a1.094,1.094,0,0,0,.081-.094c.288-.357.576-.708.865-1.065a6.307,6.307,0,0,0-2.068-2c-2.888-1.692-6.873-.52-8.959,2.093s-2.487,6.278-1.761,9.542a25.274,25.274,0,0,0,3.5,7.794c-.157.2-.32.395-.476.6a71.384,71.384,0,0,0-7.451,11.8,29.675,29.675,0,0,0-1.772-13.783c-1.7-4.091-4.874-7.536-7.673-11.073a6.091,6.091,0,0,0-10.849,2.991q-.009.078-.017.156.624.352,1.221.747a2.986,2.986,0,0,1-1.2,5.434l-.061.009a29.71,29.71,0,0,0,.783,4.442,30.589,30.589,0,0,0,15.23,19.171c.244.125.482.251.727.37A72.863,72.863,0,0,0,60.28,105.6a69.107,69.107,0,0,0,.05,11.158l-.019-.132a18.261,18.261,0,0,0-6.234-10.544c-4.8-3.941-11.575-5.392-16.75-8.56a3.427,3.427,0,0,0-5.249,3.334l.021.138a20.056,20.056,0,0,1,2.249,1.084q.624.352,1.221.747a2.986,2.986,0,0,1-1.2,5.434l-.061.009-.125.019a29.736,29.736,0,0,0,5.469,8.564,30.616,30.616,0,0,0,22.2,9.742h.006a72.839,72.839,0,0,0,4.893,14.285h17.48c.063-.194.119-.395.175-.589A19.859,19.859,0,0,1,79.571,140c1.3-1.591,2.594-3.2,3.891-4.787a1.087,1.087,0,0,0,.081-.094c.658-.814,1.322-1.623,1.98-2.437h0a29.091,29.091,0,0,0-.852-7.411Z" transform="translate(-32.048 181.877)" fill="#f2f2f2"/>
      <path id="Tracé_119" data-name="Tracé 119" d="M61.228,125.27a2.2,2.2,0,0,0,1.6-3.815l-.151-.6.06-.144a5.911,5.911,0,0,1,10.9.041c1.783,4.3,4.054,8.6,4.613,13.14a17.489,17.489,0,0,1-.307,6.014,70.114,70.114,0,0,0,6.378-29.12,67.656,67.656,0,0,0-.42-7.55q-.348-3.083-.965-6.121a70.925,70.925,0,0,0-14.065-30.06,18.875,18.875,0,0,1-7.85-8.145,14.4,14.4,0,0,1-1.309-3.935c.382.05.771.081,1.153.106l.363.019.045,0a2.181,2.181,0,0,0,1.791-3.553l-.5-.609c-.251-.313-.507-.62-.758-.933a1.1,1.1,0,0,1-.081-.094c-.288-.357-.576-.708-.865-1.065a6.307,6.307,0,0,1,2.068-2c2.888-1.692,6.873-.52,8.959,2.093s2.487,6.278,1.761,9.542a25.274,25.274,0,0,1-3.5,7.794c.157.2.32.395.476.6a71.385,71.385,0,0,1,7.451,11.8,29.674,29.674,0,0,1,1.772-13.783c1.7-4.091,4.874-7.536,7.673-11.073a6.091,6.091,0,0,1,10.849,2.991q.009.078.017.156-.624.352-1.221.747a2.986,2.986,0,0,0,1.2,5.434l.061.009a29.7,29.7,0,0,1-.783,4.442A30.589,30.589,0,0,1,82.423,86.772c-.244.125-.482.251-.727.37A72.864,72.864,0,0,1,85.618,105.6a69.1,69.1,0,0,1-.05,11.158l.019-.132a18.261,18.261,0,0,1,6.234-10.544c4.8-3.941,11.575-5.392,16.75-8.56a3.427,3.427,0,0,1,5.249,3.334l-.021.138a20.057,20.057,0,0,0-2.249,1.084q-.624.352-1.221.747a2.986,2.986,0,0,0,1.2,5.434l.061.009.125.019a29.734,29.734,0,0,1-5.469,8.564,30.616,30.616,0,0,1-22.2,9.742h-.006a72.846,72.846,0,0,1-4.893,14.285H61.666c-.063-.194-.119-.395-.175-.589A19.859,19.859,0,0,0,66.327,140c-1.3-1.591-2.594-3.2-3.891-4.787a1.082,1.082,0,0,1-.081-.094c-.658-.814-1.322-1.623-1.98-2.437h0a29.094,29.094,0,0,1,.852-7.411Z" transform="translate(144.367 181.877)" fill="#f2f2f2"/>
      <path id="Tracé_120" data-name="Tracé 120" d="M7.889,59.528,13,61.706,23.83,43.032l-7.542-3.214Z" transform="translate(50.298 253.932)" fill="#a0616a"/>
      <path id="Tracé_121" data-name="Tracé 121" d="M13.614,61.667h5.554l2.643-21.425h-8.2Z" transform="translate(86.801 256.629)" fill="#a0616a"/>
      <path id="Tracé_122" data-name="Tracé 122" d="M45.633,67.074H62.714v-.216a6.649,6.649,0,0,0-6.648-6.648h0l-3.12-2.367-5.821,2.367H45.633Z" transform="translate(54.586 257.017)" fill="#2f2e41"/>
      <path id="Tracé_123" data-name="Tracé 123" d="M39.514,63.614l15.714,6.7.085-.2A6.649,6.649,0,0,0,51.8,61.389h0l-1.942-3.4-6.284-.1L42.206,57.3Z" transform="translate(15.565 253.556)" fill="#2f2e41"/>
      <path id="Tracé_124" data-name="Tracé 124" d="M85.516,44.185l8.442,51.4-2.3,7.66,3.015,5.425-4.427,47.644,1.8,3.956-5.021,3.1H76.807l-.542-43.132L73.741,113.9v-3.49L68.6,84.114l-.548,32.662-1.64,3.164L51.721,158.405H40.264l.886-6.826h0c-2.053-1.039,3.082-4.077,3.575-6.324l-1.687-3.8,1.687-7.17,3.886-19.939-3.97-23.642,1.422-15.217-.74-5.205.056-1.684s1.958-.756.088-2.641c-2.589-14.677.6-17.862.6-17.862l12.748-7.461Z" transform="translate(20.347 147.31)" fill="#2f2e41"/>
      <circle id="ab6171fa-7d69-4734-b81c-8dff60f9761b" cx="11.578" cy="11.578" r="11.578" transform="translate(73.727 100.644)" fill="#a0616a"/>
      <path id="Tracé_125" data-name="Tracé 125" d="M55.615,31.024a4.556,4.556,0,0,1-4.971,4.909L43.917,50.66l-4.464-7.131,7.073-12.892a4.581,4.581,0,0,1,9.089.387Z" transform="translate(15.174 58.989)" fill="#a0616a"/>
      <path id="Tracé_126" data-name="Tracé 126" d="M86.237,97.915a1.088,1.088,0,0,1-1.31,1.212c-6.062-1.31-31.077,1.834-39.362,10.278a1.094,1.094,0,0,1-1.876-.847c.146-1.815,2.784-10.028,2.784-10.028l.8-5.117a1.188,1.188,0,0,0,0-.359l-.737-4.234a1.109,1.109,0,0,0-.3-.585l-.25-.25a1.1,1.1,0,0,1,0-1.547l.969-.963a1.122,1.122,0,0,0,.311-.92l-1.285-9.5c-.006-.018-.006-.043-.012-.061L40.289,45a1.1,1.1,0,0,1,.6-1.188l9.65-4.612a1.076,1.076,0,0,0,.274-.183l6.738-6.251a1.129,1.129,0,0,1,.731-.292L70.4,32.387a1.1,1.1,0,0,1,.871.427l3.686,4.794a1.093,1.093,0,0,0,.512.366l2.5.847,7.213,2.449.335.116a1.087,1.087,0,0,1,.731.987.522.522,0,0,1,.006.1l-1.8,37.321a1.181,1.181,0,0,0,.085.481l.865,2.017a1.1,1.1,0,0,1-.25,1.218c-.256.244-.548.524-.731.731-.372.408.42,3.643.542,4.112a.857.857,0,0,1,.024.122l.445,3.345a1.087,1.087,0,0,1-.451,1.03,1.09,1.09,0,0,0-.195,1.6l.975,1.151a1.163,1.163,0,0,1,.25.567Z" transform="translate(20.385 94.686)" fill="#0274cb"/>
      <path id="Tracé_127" data-name="Tracé 127" d="M43.338,32.15l-.148-.328.057,0Z" transform="translate(39.005 91.083)" fill="#2f2e41"/>
      <path id="Tracé_128" data-name="Tracé 128" d="M62.741,57.754a4.556,4.556,0,0,0-4.958-4.922L51.094,38.087l-4.483,7.12,7.04,12.91a4.581,4.581,0,0,0,9.09-.364Z" transform="translate(60.825 131.04)" fill="#a0616a"/>
      <path id="Tracé_129" data-name="Tracé 129" d="M65.912,71.7l-.372.694-3.917,7.323-.548,1.023-3.826-5.27L44.692,58.183l1.785-10.844,3.284-13.586,4.868-.28,3.412,1.4h0a7.005,7.005,0,0,1,4.045,7.751L59.064,58.092Z" transform="translate(48.587 101.612)" fill="#0274cb"/>
      <path id="Tracé_130" data-name="Tracé 130" d="M68.017,33.971a6.515,6.515,0,0,0-1.133-2.664,3.186,3.186,0,0,0-4.747-.144,3.494,3.494,0,0,0,.154-1.639,8.878,8.878,0,0,1-2.68.8l2.055-2.145-10.227.94a4.5,4.5,0,0,0-2.972,1.036c-.775.8-.818,2.513.162,2.96-1.93-.727-4.147.328-5.421,2.1a11.667,11.667,0,0,0-1.829,6.362c-.112,2.934.435,6.057,2.226,8.217,1.171,1.412,2.768,2.293,4.063,3.564l.039.038A11.52,11.52,0,0,0,58.857,56.5c.221-.061.44-.128.661-.191a2.683,2.683,0,0,0,3.17-1.291,8.115,8.115,0,0,0,.92-4.134,33.9,33.9,0,0,0-.347-5.632c-.307-2.1-.583-4.788,1.08-5.843,1.295-.821,2.9-.011,4.206.793A21.645,21.645,0,0,0,68.017,33.971Z" transform="translate(27.367 67.833)" fill="#2f2e41"/>
      <path id="Tracé_131" data-name="Tracé 131" d="M68.465,87.5l-7.715-.557L47.362,70.546,37.423,56.3l2.289-5.791,10.819-15.5-.112-1.339,1.2-.216.021-1.612.994.158,2.662-3.813,6.092,4.874L57.94,43.183l-.21,2.063L56.538,47.3l.583,2.819-2.278,2.162-1.1,3.222c4.732,3.112,9.22,7.769,13.6,13.6Z" transform="translate(2.231 67.906)" fill="#0274cb"/>
      <path id="Tracé_132" data-name="Tracé 132" d="M45.437,23.482,44.6,31.237l.492,10.17L22.566,38.731l-2.117-15.25,2.7.026Z" transform="translate(130.397 149.748)" fill="#ffb6b6"/>
      <path id="Tracé_133" data-name="Tracé 133" d="M61.55,41.388,66.9,38.177l2.566-3.961,7.92,1.218,9.682,6.49-.095,14.719-6,15.267L55.815,68.7l-.956-5.385s-6.959-9.346.535-14.7Z" transform="translate(94.67 106.352)" fill="#0274cb"/>
      <path id="Tracé_134" data-name="Tracé 134" d="M49.2,31.328a4.086,4.086,0,0,0,2.641,5.682L69.273,69.894l7.035-5.429L56.964,33.848a4.108,4.108,0,0,0-7.76-2.52Z" transform="translate(74.889 72.704)" fill="#ffb6b6"/>
      <path id="Tracé_135" data-name="Tracé 135" d="M69.51,62.734s-1.615,1.432-3.912-2.523C63.76,57.045,54.59,42.867,53.292,37.952a3.21,3.21,0,0,1-3.176-2.324l9.85-3.823c2.141,1.071,1.547,2.554,1,3.322l3.668,5.5,12.2,13.693-6.144,7.4Z" transform="translate(83.171 90.976)" fill="#0274cb"/>
      <path id="Tracé_136" data-name="Tracé 136" d="M31.7,58.991H26.779l-2.344-19H31.7Z" transform="translate(155.815 255.051)" fill="#ffb6b6"/>
      <path id="Tracé_137" data-name="Tracé 137" d="M72.731,69.586H69.2l-.63-3.335-1.615,3.335H57.587a2.106,2.106,0,0,1-1.2-3.839l7.481-5.166V57.21l7.868.47Z" transform="translate(117.386 252.989)" fill="#2f2e41"/>
      <path id="Tracé_138" data-name="Tracé 138" d="M27.954,58.991H23.029l-2.344-19h7.269Z" transform="translate(131.9 255.051)" fill="#ffb6b6"/>
      <path id="Tracé_139" data-name="Tracé 139" d="M68.981,69.586H65.449l-.63-3.335L63.2,69.586H53.837a2.106,2.106,0,0,1-1.2-3.839l7.481-5.166V57.21l7.868.47Z" transform="translate(93.472 252.989)" fill="#2f2e41"/>
      <path id="Tracé_140" data-name="Tracé 140" d="M95.454,149.959H95.4l-.947-30.888a8.077,8.077,0,0,0-.106-7.632l-.136-.246.352-1.63a10.381,10.381,0,0,0-.593-6.248L93.086,74.5C96.243,54.043,81.2,40.7,81.2,40.7H58.661L57.05,46.234,55.328,47.7l.652,2.214-1.871,2.66-.287,4.753c-3.2,31.163-2.618,61.531,2.458,90.953l-.138.07a1.169,1.169,0,0,0-.477,1.542c.235.68.829,1.091,1.327.919l11.9-.414a1.169,1.169,0,0,0,.477-1.542c-.235-.679-.829-1.091-1.327-.919l-.809.409,1.726-29.806-.192-5.444.395-6.176,1.824-27.781L77.894,113.3,84.947,150.3a1.3,1.3,0,0,0,.875,2.259h9.631a1.3,1.3,0,1,0,0-2.6Z" transform="translate(94.19 147.701)" fill="#2f2e41"/>
      <path id="Tracé_141" data-name="Tracé 141" d="M85.356,75.24a4.086,4.086,0,0,0-2.806-5.6L64.17,37.277,57.3,42.909,77.525,72.948a4.108,4.108,0,0,0,7.831,2.292Z" transform="translate(128.969 125.87)" fill="#ffb6b6"/>
      <path id="Tracé_142" data-name="Tracé 142" d="M61.926,35.5S63.5,34.018,65.91,37.9c1.93,3.111,15.6,21.051,17.042,25.925a3.21,3.21,0,0,1,3.243,2.23l-9.734,4.109c-2.171-1.008-3.183-2.892-2.663-3.676L69.971,61.1,55.621,44.533l5.149-7.988Z" transform="translate(118.282 112.757)" fill="#0274cb"/>
      <path id="Tracé_143" data-name="Tracé 143" d="M284.977,59.852a.943.943,0,0,1-.946.946H33a.946.946,0,0,1,0-1.893H284.03a.944.944,0,0,1,.947.946Z" transform="translate(-32.023 263.801)" fill="#ccc"/>
      <path id="Tracé_144" data-name="Tracé 144" d="M55.1,37.954a13.647,13.647,0,0,0,4.945,17.875c6.576,4.254,15.114,3.323,17.875-4.945,3.075-9.207.549-13.157-4.945-17.875C66.536,27.479,58.64,30.974,55.1,37.954Z" transform="translate(105.191 81.252)" fill="#2f2e41"/>
      <path id="Tracé_145" data-name="Tracé 145" d="M72.068,47.726a10.376,10.376,0,1,1-16.51-12.572l.09-.118A10.375,10.375,0,1,1,72.067,47.725Z" transform="translate(104.353 85.869)" fill="#ffb6b6"/>
      <path id="Tracé_146" data-name="Tracé 146" d="M53.345,36.362a14.177,14.177,0,0,0,5.985,3.391,6.2,6.2,0,0,1,1.577-1.307,6.632,6.632,0,0,0-.579,1.873c1,2.076,5.086,3.568,8.991,5.095l5.172-9.128-6.846-3.879C62.144,28.6,55.668,30.226,53.345,36.362Z" transform="translate(103.769 81.798)" fill="#2f2e41"/>
      <path id="Tracé_147" data-name="Tracé 147" d="M58.4,30.822a3.189,3.189,0,0,1,3.015.44,6.719,6.719,0,0,1,1.968,2.393,17.163,17.163,0,0,1,1.784,4.863c.3,1.472.245,3.252-1.076,4.021a3.409,3.409,0,0,1-3.691-.618,8.2,8.2,0,0,1-2.078-3.232,11.425,11.425,0,0,0-1.84-3.367l.913.426a7.976,7.976,0,0,1-.4-2.717,2.631,2.631,0,0,1,1.4-2.209Z" transform="translate(123.762 83.451)" fill="#2f2e41"/>
      <path id="Tracé_148" data-name="Tracé 148" d="M64.5,30.814l7.345,4.162a8.607,8.607,0,0,1,3.245,11.732h0A13.36,13.36,0,0,1,58,52.313l6.711-5.925-9.1,4.639-1.944-1.1C63.432,48.151,65.316,40.491,64.5,30.814Z" transform="translate(105.824 84.655)" fill="#2f2e41"/>
      <path id="Tracé_149" data-name="Tracé 149" d="M34.362,0,10.2,40.229,34.444,54.543Z" transform="translate(65.031)" fill="#8c8c8c"/>
      <path id="Tracé_150" data-name="Tracé 150" d="M37.743,40.229,13.474,0l.082,54.543Z" transform="translate(85.919)" fill="#333"/>
      <path id="Tracé_151" data-name="Tracé 151" d="M10.2,14.994,34.415,3.957l.029,25.352Z" transform="translate(65.031 25.235)" fill="#383838"/>
      <path id="Tracé_152" data-name="Tracé 152" d="M37.7,14.994,13.481,3.957l.052,24.425Z" transform="translate(85.964 25.235)" fill="#141414"/>
      <path id="Tracé_153" data-name="Tracé 153" d="M37.664,6.078,13.477,20.392V40.136Z" transform="translate(85.939 38.758)" fill="#333"/>
      <path id="Tracé_154" data-name="Tracé 154" d="M10.2,6.078,34.386,20.392V40.136Z" transform="translate(65.03 38.758)" fill="#8c8c8c"/>
    </g>
  </g>
</svg>
