<svg xmlns="http://www.w3.org/2000/svg" width="416.119" height="139.007" viewBox="0 0 416.119 139.007">
  <g id="w3_html5-ar21" transform="translate(-56.896 -108.915)">
    <path id="Tracé_155" data-name="Tracé 155" d="M56.9,193.942H78.979v21.812h20.2V193.942h22.083V260H99.175V237.915h-20.2V260H56.9V193.942Zm93.4,21.909H130.816v-21.9h60.965v21.9H172.332v44.155H150.249V215.851Zm51.167-21.909h23.025l14.164,23.245L252.8,193.942h22.993V260H253.8V227.253l-15.187,23.489h-.38L223.1,227.257V260H201.5Zm85.349,0h22.083v44.263h31.052V260.04H286.812Z" transform="translate(0 -48.552)"/>
    <path id="Tracé_156" data-name="Tracé 156" d="M741.18,108.915H863.749L852.583,234.006l-50.191,13.916-50.055-13.9Z" transform="translate(-390.734 0)" fill="#e44d26"/>
    <path id="Tracé_157" data-name="Tracé 157" d="M924.666,239.663l9.542-106.9H884.142V250.906Z" transform="translate(-472.367 -13.619)" fill="#f16529"/>
    <path id="Tracé_158" data-name="Tracé 158" d="M812.594,199.594l-1.4-15.714h21.742V168.538H794.463l4.138,46.4h34.333V199.6Zm-13.351,23.021,2.15,24.1,31.432,8.725.07-.019V239.455l-.066.019-17.047-4.649-1.093-12.243h-8.3Z" transform="translate(-421.159 -34.045)" fill="#ebebeb"/>
    <path id="Tracé_159" data-name="Tracé 159" d="M919.224,203.656l.376-4.122H883.934v15.342h18.895l-1.782,19.9L883.934,239.4v15.962l31.459-8.717.232-2.6Zm-35.255-19.828h37.065l1.375-15.381h-38.44v15.381Z" transform="translate(-472.248 -33.994)" fill="#fff"/>
  </g>
</svg>
