<svg xmlns="http://www.w3.org/2000/svg" width="435.779" height="97.544" viewBox="0 0 435.779 97.544">
  <g id="javascript-logo" transform="translate(-9.999 -5)">
    <path id="Tracé_160" data-name="Tracé 160" d="M23.983,70.1c0-3.512-1.2-6.044-3.605-7.536Q16.828,60.326,10,60.325V47.254a32.687,32.687,0,0,0,6.009-.492,13.187,13.187,0,0,0,4.479-1.693,7.32,7.32,0,0,0,2.677-3.059,9.072,9.072,0,0,0,.819-4.477V20.164a20.115,20.115,0,0,1,1.038-6.881,9.407,9.407,0,0,1,3.714-4.7A19.588,19.588,0,0,1,36.11,5.854,65.593,65.593,0,0,1,47.906,5V17.291a27.019,27.019,0,0,0-3.988.382,7.82,7.82,0,0,0-3,1.2,5.457,5.457,0,0,0-1.857,2.294,9.491,9.491,0,0,0-.655,3.824V41.321c-.219,6.828-4.479,10.851-12.778,12.125V54.1c4.187.618,7.413,1.951,9.612,3.933A9.992,9.992,0,0,1,38.4,66.17V82.5a9.491,9.491,0,0,0,.655,3.824,5.287,5.287,0,0,0,1.857,2.294,7.638,7.638,0,0,0,3,1.2,25.836,25.836,0,0,0,3.988.382v12.343a65.737,65.737,0,0,1-11.8-.874,19.5,19.5,0,0,1-7.374-2.731,9.38,9.38,0,0,1-3.714-4.7,20.63,20.63,0,0,1-1.038-6.935V70.1M431.8,87.305a20.6,20.6,0,0,1-1.038,6.935,9.316,9.316,0,0,1-3.769,4.7,19.069,19.069,0,0,1-7.316,2.731,65.244,65.244,0,0,1-11.8.874V90.2a25.871,25.871,0,0,0,3.933-.382,7.17,7.17,0,0,0,2.95-1.2,5.16,5.16,0,0,0,1.912-2.294,8.837,8.837,0,0,0,.71-3.824V66.17a9.94,9.94,0,0,1,3.168-8.135q3.333-3,9.559-3.933v-.655c-8.266-1.274-12.486-5.316-12.726-12.125V24.993a8.814,8.814,0,0,0-.71-3.824,5.17,5.17,0,0,0-1.912-2.294,7.1,7.1,0,0,0-2.95-1.2,24.913,24.913,0,0,0-3.933-.382V5a65.737,65.737,0,0,1,11.8.874,18.925,18.925,0,0,1,7.316,2.731,9.3,9.3,0,0,1,3.769,4.7,20.108,20.108,0,0,1,1.038,6.881V37.552a9.879,9.879,0,0,0,.819,4.477,7.466,7.466,0,0,0,2.677,3.059,13.258,13.258,0,0,0,4.425,1.693,33.762,33.762,0,0,0,6.063.492V60.344q-6.827,0-10.431,2.24-3.55,2.239-3.551,7.536V87.327" fill="#558"/>
    <g id="Groupe_16" data-name="Groupe 16" transform="translate(65.609 21.378)">
      <path id="Tracé_161" data-name="Tracé 161" d="M44.163,82.243a17.724,17.724,0,0,1-3.25-.258,11.463,11.463,0,0,1-2.409-.62V75.526a20.385,20.385,0,0,0,2.665.511,20.151,20.151,0,0,0,3.067.22,10.242,10.242,0,0,0,2.7-.365,5.989,5.989,0,0,0,2.483-1.241,6.348,6.348,0,0,0,1.826-2.536,10.477,10.477,0,0,0,.694-4.089V14.651H58.77V67.313a18.405,18.405,0,0,1-1.092,6.645,12.136,12.136,0,0,1-2.995,4.637,11.587,11.587,0,0,1-4.6,2.739,20.978,20.978,0,0,1-6.37.913M92.705,62.494h-.293A24.866,24.866,0,0,1,90,65.342a11.382,11.382,0,0,1-5.8,3.067,20.1,20.1,0,0,1-4.052.365,14.233,14.233,0,0,1-4.637-.73,9.832,9.832,0,0,1-3.687-2.154,10.355,10.355,0,0,1-2.409-3.707,14.7,14.7,0,0,1-.878-5.33q0-5.987,4.2-9.2,4.234-3.213,12.85-3.506L92.3,43.89V41.354a13.152,13.152,0,0,0-.546-4.089,6.221,6.221,0,0,0-1.533-2.628,5.518,5.518,0,0,0-2.483-1.463,11.7,11.7,0,0,0-3.359-.437,17.753,17.753,0,0,0-5.659.876,36.24,36.24,0,0,0-5,2.117l-2.337-5A33.046,33.046,0,0,1,77.4,28.244a25.647,25.647,0,0,1,13.4-.256,10.333,10.333,0,0,1,4.491,2.372,9.924,9.924,0,0,1,2.665,4.126,18.683,18.683,0,0,1,.878,6.1V68.038h-4.8Zm-10.843.893a12,12,0,0,0,4.126-.695,9.038,9.038,0,0,0,3.285-2.082,9.762,9.762,0,0,0,2.154-3.541,14.419,14.419,0,0,0,.8-5.039V48.416l-5.221.258a26.927,26.927,0,0,0-5.513.73,9.75,9.75,0,0,0-3.578,1.643,5.833,5.833,0,0,0-1.9,2.519,8.881,8.881,0,0,0-.585,3.322c0,2.24.585,3.9,1.752,4.928a6.749,6.749,0,0,0,4.672,1.57m22.552-35.428h6.863l7.265,22.3.95,3.121,1.092,3.871.985,3.707.62,2.665h.254l.62-2.665.985-3.707,1.092-3.871.95-3.121,7.265-22.306h6.863L126.527,68.042h-8.436Zm62.959,34.536h-.293a24.866,24.866,0,0,1-2.409,2.848,11.381,11.381,0,0,1-5.8,3.067,20.1,20.1,0,0,1-4.052.365,14.233,14.233,0,0,1-4.637-.73,9.832,9.832,0,0,1-3.687-2.154,10.355,10.355,0,0,1-2.409-3.707,14.7,14.7,0,0,1-.878-5.33q0-5.987,4.2-9.2,4.234-3.213,12.85-3.506l6.717-.258V41.354a13.152,13.152,0,0,0-.546-4.089,6.22,6.22,0,0,0-1.533-2.628,5.518,5.518,0,0,0-2.483-1.463,11.7,11.7,0,0,0-3.359-.437,17.753,17.753,0,0,0-5.66.876,36.241,36.241,0,0,0-5,2.117l-2.337-5a33.046,33.046,0,0,1,6.024-2.483,25.647,25.647,0,0,1,13.4-.256,10.332,10.332,0,0,1,4.491,2.372,9.925,9.925,0,0,1,2.665,4.126,18.684,18.684,0,0,1,.878,6.1V68.038h-4.78Zm-10.843.911a12,12,0,0,0,4.126-.695,9.038,9.038,0,0,0,3.285-2.082,9.762,9.762,0,0,0,2.154-3.541,14.419,14.419,0,0,0,.8-5.039V48.434l-5.221.258a26.927,26.927,0,0,0-5.513.73,9.75,9.75,0,0,0-3.578,1.643,5.833,5.833,0,0,0-1.9,2.519A8.88,8.88,0,0,0,150.1,56.9c0,2.24.585,3.9,1.752,4.928a6.749,6.749,0,0,0,4.672,1.57m57.929-9.637a15.241,15.241,0,0,1-1.278,6.352,12.851,12.851,0,0,1-3.578,4.709,16.2,16.2,0,0,1-5.7,2.958,26.822,26.822,0,0,1-7.558.985,41.7,41.7,0,0,1-7.593-.657,20.374,20.374,0,0,1-5.878-1.863v-6.5l2.809,1.171,3.359.985,3.615.73a27.251,27.251,0,0,0,3.707.258q5.841,0,8.615-2.191a7.5,7.5,0,0,0,2.809-6.282,9.829,9.829,0,0,0-.546-3.434,6.431,6.431,0,0,0-1.861-2.665,15.139,15.139,0,0,0-3.541-2.372c-1.483-.78-3.359-1.619-5.622-2.536a34.205,34.205,0,0,1-5.658-2.774,16.959,16.959,0,0,1-3.941-3.434,13.188,13.188,0,0,1-2.3-4.308,18.855,18.855,0,0,1-.73-5.476,13.451,13.451,0,0,1,1.171-5.732,11.7,11.7,0,0,1,3.285-4.233,14.628,14.628,0,0,1,5.037-2.665,21.82,21.82,0,0,1,6.5-.913,33.277,33.277,0,0,1,7.813.839,30.451,30.451,0,0,1,6.171,2.082l-2.446,5.7a32.631,32.631,0,0,0-5.4-1.826,23.879,23.879,0,0,0-6.2-.8,10.345,10.345,0,0,0-6.9,2.082,6.856,6.856,0,0,0-2.446,5.548,10.9,10.9,0,0,0,.546,3.615,7.321,7.321,0,0,0,1.826,2.739,14.771,14.771,0,0,0,3.359,2.3q2.538,1.251,5.183,2.263a45.727,45.727,0,0,1,5.8,2.7,17.275,17.275,0,0,1,4.2,3.121,11.491,11.491,0,0,1,2.519,4.052,15.618,15.618,0,0,1,.893,5.509m24.7,14.928a20.652,20.652,0,0,1-6.9-1.132,14.476,14.476,0,0,1-5.585-3.65A17.668,17.668,0,0,1,223,57.56a28.776,28.776,0,0,1-1.35-9.364,30.329,30.329,0,0,1,1.366-9.711,17.244,17.244,0,0,1,3.8-6.5,14.337,14.337,0,0,1,5.7-3.648,21.223,21.223,0,0,1,6.972-1.132,24.756,24.756,0,0,1,5.548.62,20.485,20.485,0,0,1,4.565,1.533l-1.951,5.622a19.625,19.625,0,0,0-1.861-.695,17.967,17.967,0,0,0-2.117-.62,17.751,17.751,0,0,0-2.154-.439,11.926,11.926,0,0,0-2.009-.183q-5.736,0-8.359,3.707-2.628,3.649-2.628,11.389,0,7.7,2.628,11.282c1.756,2.341,4.487,3.541,8.069,3.541a20.137,20.137,0,0,0,5.33-.657,28.2,28.2,0,0,0,4.382-1.606v5.915a17.714,17.714,0,0,1-4.235,1.606,24.232,24.232,0,0,1-5.574.546M275.4,27.224l2.372.107a16.915,16.915,0,0,1,2.263.258l-.878,6.134-2.117-.293a14.705,14.705,0,0,0-2.009-.146,9.24,9.24,0,0,0-4.2.95,9.455,9.455,0,0,0-3.285,2.665,12.876,12.876,0,0,0-2.117,4.161,18.423,18.423,0,0,0-.73,5.365V68.036h-6.645V27.96h5.4l.8,7.335h.293l1.935-3.03a13.773,13.773,0,0,1,2.337-2.536,10.593,10.593,0,0,1,2.92-1.789,9.7,9.7,0,0,1,3.765-.695" transform="translate(-38.504 -12.932)" stroke="#000" stroke-width="2.129"/>
      <path id="Tracé_162" data-name="Tracé 162" d="M173,68.505h-6.647V28.419H173V68.505M166.94,14.38a4.072,4.072,0,0,1,2.774-.985,4.223,4.223,0,0,1,1.5.258,2.907,2.907,0,0,1,1.241.73,3.326,3.326,0,0,1,.839,1.315,4.729,4.729,0,0,1,.328,1.861,4.067,4.067,0,0,1-1.171,3.176,3.938,3.938,0,0,1-2.739,1.022,4.221,4.221,0,0,1-2.8-1.194,4.071,4.071,0,0,1-1.073-3.092,4.018,4.018,0,0,1,1.1-3.09Z" transform="translate(82.569 -13.395)" stroke="#000" stroke-linecap="square" stroke-width="2.129"/>
      <path id="Tracé_163" data-name="Tracé 163" d="M193.953,66.4a14.631,14.631,0,0,1-7.082-1.715,12.733,12.733,0,0,1-2.483-1.863,18.026,18.026,0,0,1-1.9-2.226h-.439l.219,2.372.146,1.951.072,1.57V83.611h-6.645V25.582h5.4l.95,5.4h.293a16.23,16.23,0,0,1,1.9-2.372,10.594,10.594,0,0,1,2.446-1.935,12.832,12.832,0,0,1,3.176-1.315,14.061,14.061,0,0,1,3.941-.511,14.557,14.557,0,0,1,6.243,1.315,12.6,12.6,0,0,1,4.782,3.943,19.359,19.359,0,0,1,3.121,6.461,32.286,32.286,0,0,1,1.092,8.982,33.742,33.742,0,0,1-1.092,9.052,18.877,18.877,0,0,1-3.121,6.5,13.1,13.1,0,0,1-4.78,3.98,16.693,16.693,0,0,1-6.7,1.315m-.819-36.033a11.809,11.809,0,0,0-4.709.839,7.374,7.374,0,0,0-3.1,2.556,12.317,12.317,0,0,0-1.752,4.292,32.345,32.345,0,0,0-.62,6.024v1.5a40.59,40.59,0,0,0,.474,6.571,14.447,14.447,0,0,0,1.678,4.819,8.057,8.057,0,0,0,3.176,2.958,10.97,10.97,0,0,0,4.928.985,7.75,7.75,0,0,0,7.228-3.98q2.335-3.98,2.337-11.426,0-7.594-2.337-11.354-2.3-3.76-7.3-3.759m38.69,30.576c.439,0,.925-.039,1.463-.074l1.606-.183,1.366-.258.985-.258v5.039a9.269,9.269,0,0,1-1.206.439,13.514,13.514,0,0,1-1.606.365,14.81,14.81,0,0,1-1.826.258,15.841,15.841,0,0,1-1.861.107,14.475,14.475,0,0,1-4.2-.585,7.92,7.92,0,0,1-3.359-2.007,9.868,9.868,0,0,1-2.191-3.833,19.965,19.965,0,0,1-.8-6.134V30.58H214.07V27.623l5.658-2.848,2.848-8.4h3.833v9.2h10.076v5H226.41V53.835a10.142,10.142,0,0,0,1.132,5.33,4.246,4.246,0,0,0,3.8,1.789" transform="translate(92.088 -10.559)" stroke="#000" stroke-width="2.129"/>
    </g>
  </g>
</svg>
