<svg id="react-seeklogo.com" xmlns="http://www.w3.org/2000/svg" width="279.493" height="251.287" viewBox="0 0 279.493 251.287">
  <path id="Tracé_46" data-name="Tracé 46" d="M.754,125.976c0,21.108,20.611,40.812,53.105,51.919-6.489,32.666-1.163,59,16.626,69.255C88.771,257.7,116.012,250.4,141.867,227.8c25.2,21.688,50.675,30.223,68.448,19.935,18.267-10.575,23.823-38.691,17.155-72.377,33.845-11.189,52.777-27.991,52.777-49.377,0-20.617-20.649-38.454-52.705-49.49,7.179-35.079,1.1-60.77-17.43-71.453-17.861-10.3-43.628-1.322-69.2,20.934C114.306,2.344,88.792-4.868,70.284,5.846,52.441,16.175,47.349,42.983,53.859,76.255,22.462,87.2.754,105.442.754,125.976Z" transform="translate(-0.754 -0.785)" fill="#fff"/>
  <path id="Tracé_47" data-name="Tracé 47" d="M219.326,86.093q-3.862-1.329-7.991-2.518.677-2.764,1.235-5.45c6.048-29.36,2.094-53.013-11.411-60.8-12.948-7.467-34.125.319-55.513,18.931q-3.085,2.685-6.18,5.671-2.061-1.971-4.113-3.8C112.938,18.226,90.47,9.839,76.979,17.649,64.043,25.138,60.212,47.374,65.656,75.2q.789,4.031,1.835,8.223c-3.18.9-6.25,1.865-9.187,2.889-26.279,9.162-43.062,23.521-43.062,38.415,0,15.383,18.017,30.812,45.388,40.168q3.24,1.107,6.711,2.1-1.125,4.526-1.949,8.861C60.2,203.195,64.256,224.9,77.158,232.347c13.327,7.684,35.692-.214,57.471-19.251q2.582-2.257,5.179-4.774,3.365,3.241,6.71,6.122c21.1,18.153,41.93,25.483,54.821,18.021,13.313-7.707,17.64-31.03,12.022-59.405q-.643-3.251-1.488-6.634,2.356-.7,4.616-1.442c28.456-9.427,46.969-24.669,46.969-40.258,0-14.947-17.323-29.4-44.131-38.632Z" transform="translate(0.673 0.568)" fill="#53c1de"/>
  <path id="Tracé_48" data-name="Tracé 48" d="M212.2,153.97c-1.357.449-2.75.883-4.169,1.3a248.711,248.711,0,0,0-12.569-31.445,248.805,248.805,0,0,0,12.08-30.986c2.539.735,5,1.51,7.379,2.328,22.969,7.907,36.98,19.6,36.98,28.606,0,9.6-15.132,22.053-39.7,30.194Zm-10.194,20.2c2.484,12.547,2.839,23.891,1.193,32.76-1.479,7.969-4.451,13.281-8.127,15.409-7.822,4.528-24.55-1.358-42.591-16.882q-3.1-2.669-6.242-5.691a249.065,249.065,0,0,0,20.807-26.418,247.539,247.539,0,0,0,33.617-5.182q.76,3.063,1.343,6ZM98.914,221.557c-7.643,2.7-13.729,2.776-17.409.655-7.829-4.516-11.084-21.947-6.645-45.33q.763-4.017,1.811-8.241a249.4,249.4,0,0,0,33.449,4.842,258.185,258.185,0,0,0,21.308,26.325q-2.374,2.292-4.729,4.354c-9.631,8.419-19.281,14.39-27.786,17.395Zm-35.8-67.646c-12.1-4.137-22.1-9.513-28.95-15.38C28,133.259,24.9,128.024,24.9,123.776c0-9.037,13.475-20.566,35.949-28.4,2.727-.951,5.582-1.847,8.544-2.688a254.169,254.169,0,0,0,12.1,31.348,258.389,258.389,0,0,0-12.249,31.794q-3.168-.91-6.127-1.918Zm12-81.7c-4.665-23.84-1.567-41.823,6.229-46.336,8.3-4.808,26.666,2.047,46.02,19.231q1.855,1.648,3.725,3.437A254.079,254.079,0,0,0,109.94,74.713a259.151,259.151,0,0,0-33.122,5.148q-.969-3.9-1.706-7.647ZM182.18,98.652q-3.684-6.364-7.548-12.413c7.919,1,15.508,2.33,22.633,3.957a226.139,226.139,0,0,1-7.944,21.374q-3.376-6.412-7.14-12.917ZM138.518,56.125a226.871,226.871,0,0,1,14.607,17.633q-7.283-.344-14.726-.349-7.362,0-14.611.342c4.822-6.359,9.762-12.267,14.73-17.627Zm-43.942,42.6q-3.68,6.381-7.007,12.836c-3.088-7.324-5.73-14.525-7.887-21.478,7.082-1.585,14.634-2.881,22.5-3.863q-3.91,6.1-7.609,12.5Zm7.836,63.365a225.731,225.731,0,0,1-22.876-3.678c2.192-7.077,4.892-14.432,8.045-21.913q3.333,6.438,7.037,12.844h0q3.772,6.515,7.793,12.747Zm36.4,30.087c-5.026-5.423-10.038-11.421-14.934-17.873q7.128.28,14.522.281,7.59,0,14.984-.333a225.685,225.685,0,0,1-14.572,17.924Zm50.61-56.059a224.924,224.924,0,0,1,8.335,21.835A225.03,225.03,0,0,1,174.6,161.9q3.866-6.125,7.62-12.631,3.791-6.576,7.2-13.151Zm-16.384,7.854c-3.88,6.727-7.863,13.15-11.907,19.212-7.367.527-14.976.8-22.731.8-7.724,0-15.237-.241-22.473-.71-4.206-6.142-8.276-12.583-12.132-19.243h0c-3.845-6.642-7.384-13.339-10.591-20,3.206-6.676,6.736-13.38,10.559-20.01h0c3.833-6.647,7.868-13.057,12.036-19.16,7.382-.558,14.952-.849,22.6-.849h0c7.685,0,15.264.293,22.644.856,4.105,6.059,8.111,12.448,11.959,19.1,3.892,6.722,7.468,13.383,10.7,19.915-3.223,6.645-6.79,13.372-10.665,20.092Zm21.875-118.41c8.311,4.793,11.544,24.125,6.322,49.474-.333,1.618-.709,3.265-1.116,4.935a253.967,253.967,0,0,0-33.188-5.243,248.994,248.994,0,0,0-20.983-26.187q2.862-2.752,5.709-5.236c18.325-15.947,35.452-22.244,43.256-17.744Z" transform="translate(1.624 1.517)" fill="#fff"/>
  <path id="Tracé_49" data-name="Tracé 49" d="M130.209,94.665a22.165,22.165,0,1,1-22.165,22.164,22.164,22.164,0,0,1,22.165-22.164" transform="translate(9.815 8.463)" fill="#53c1de"/>
</svg>
