<svg id="undraw_code_review_re_woeb" xmlns="http://www.w3.org/2000/svg" width="398" height="274.556" viewBox="0 0 398 274.556">
  <circle id="Ellipse_9" data-name="Ellipse 9" cx="11.237" cy="11.237" r="11.237" transform="translate(57.636 105.374)" fill="#ffb8b8"/>
  <path id="Tracé_74" data-name="Tracé 74" d="M67.543,536.185l2.845,4.834,20-8.675-4.2-7.134Z" transform="translate(-36.64 -284.911)" fill="#ffb8b8"/>
  <path id="Tracé_75" data-name="Tracé 75" d="M198.669,694.43l5.6,9.52h0a7.04,7.04,0,0,1-2.5,9.637l-.2.116-9.174-15.587Z" transform="translate(-166.913 -445.318)" fill="#2f2e41"/>
  <path id="Tracé_76" data-name="Tracé 76" d="M139.6,561.607h5.609l2.668-21.636H139.6Z" transform="translate(-75.728 -292.918)" fill="#ffb8b8"/>
  <path id="Tracé_77" data-name="Tracé 77" d="M273.162,733.215h11.047a7.04,7.04,0,0,1,7.04,7.04v.229H273.162Z" transform="translate(-210.722 -466.357)" fill="#2f2e41"/>
  <path id="Tracé_78" data-name="Tracé 78" d="M218.146,631.038a2.056,2.056,0,0,1-1.658-.839l-5.41-7.347a2.059,2.059,0,0,1,.515-2.933l24.072-16.078L221.14,565.649l31.061,2.563,1.046,32.82a16.492,16.492,0,0,1-8.256,14.835l-25.817,14.894A2.052,2.052,0,0,1,218.146,631.038Z" transform="translate(-176.825 -375.458)" fill="#2f2e41"/>
  <path id="Tracé_79" data-name="Tracé 79" d="M272.874,686.474a2.059,2.059,0,0,1-2.054-1.986l-1.138-31.973,14.1-.742-1.122,32.2a2.053,2.053,0,0,1-1.921,1.983l-7.72.511C272.968,686.472,272.921,686.474,272.874,686.474Z" transform="translate(-208.834 -422.177)" fill="#2f2e41"/>
  <path id="Tracé_80" data-name="Tracé 80" d="M265.272,504.125c-3.586,0-16.113-4.034-20.461-5.472-.651.521-4.224,3.193-8.4,2.7a9.784,9.784,0,0,1-6.735-4.331c-4.185-5.68.984-30.037,6.057-49.471a15.678,15.678,0,0,1,18.543-11.383h0a15.817,15.817,0,0,1,11.936,11.611c.955,3.888.133,8.462-.466,11.8a16.036,16.036,0,0,0-.429,3.42c.294,2.356,1.93,39.3.878,40.876C266.087,504.049,265.763,504.125,265.272,504.125Z" transform="translate(-186.302 -305.021)" fill="#0274cb"/>
  <path id="Tracé_81" data-name="Tracé 81" d="M268.889,523.273a4.915,4.915,0,0,0,.431-7.524l.222-44.766L259,472.739l3.1,43.451a4.942,4.942,0,0,0,6.794,7.083Z" transform="translate(-203.038 -324.104)" fill="#ffb8b8"/>
  <path id="Tracé_82" data-name="Tracé 82" d="M269.709,485.358H258.352a2.065,2.065,0,0,1-2.059-2.04l-.279-30.788a8.054,8.054,0,1,1,16.107.02l-.354,30.773A2.066,2.066,0,0,1,269.709,485.358Z" transform="translate(-201.42 -309.73)" fill="#0274cb"/>
  <path id="Tracé_83" data-name="Tracé 83" d="M267.86,397.816a11.4,11.4,0,0,1-10.891-9.125,13.118,13.118,0,0,1,.421-5.954,15.992,15.992,0,0,1,21.932-10.044,6.407,6.407,0,0,1,3.362,2.89,2.984,2.984,0,0,1-1.143,3.91c-.9.4-2.032.205-2.831.785-1.148.832-.853,2.6-.34,3.926s1.092,2.922.233,4.05c-.8,1.051-2.4,1.018-3.662.623s-2.505-1.058-3.82-.923c-1.917.2-3.3,2.1-3.55,4.014a13.057,13.057,0,0,0,.938,5.654Z" transform="translate(-201.848 -270.013)" fill="#2f2e41"/>
  <path id="Tracé_84" data-name="Tracé 84" d="M255.189,748.957H137.147a.458.458,0,0,1,0-.915H255.189a.458.458,0,0,1,0,.915Z" transform="translate(-136.689 -474.401)" fill="#ccc"/>
  <path id="Tracé_85" data-name="Tracé 85" d="M690.223,354.638h-293.2a7.558,7.558,0,0,1-7.549-7.549V166.294A5.537,5.537,0,0,1,395,160.764H692.146a5.633,5.633,0,0,1,5.626,5.626v180.7A7.558,7.558,0,0,1,690.223,354.638Z" transform="translate(-299.773 -155.82)" fill="#f2f2f2"/>
  <path id="Tracé_86" data-name="Tracé 86" d="M693.49,362.959H420.233a7.053,7.053,0,0,1-7.264-6.8V198.718a5.228,5.228,0,0,1,5.383-5.045H695.283a5.315,5.315,0,0,1,5.473,5.128V356.156A7.053,7.053,0,0,1,693.49,362.959Z" transform="translate(-312.519 -173.672)" fill="#fff"/>
  <path id="Tracé_87" data-name="Tracé 87" d="M697.542,161.373h-308.3V157.53a7.583,7.583,0,0,1,7.577-7.572H689.966a7.583,7.583,0,0,1,7.577,7.572Z" transform="translate(-299.648 -149.958)" fill="#3f3d56"/>
  <circle id="Ellipse_10" data-name="Ellipse 10" cx="1.96" cy="1.96" r="1.96" transform="translate(119.489 3.759)" fill="#fff"/>
  <circle id="Ellipse_11" data-name="Ellipse 11" cx="1.96" cy="1.96" r="1.96" transform="translate(126.469 3.759)" fill="#fff"/>
  <circle id="Ellipse_12" data-name="Ellipse 12" cx="1.96" cy="1.96" r="1.96" transform="translate(133.448 3.759)" fill="#fff"/>
  <path id="Tracé_88" data-name="Tracé 88" d="M646.373,261.788H592.93a3,3,0,0,1,0-6.008h53.443a3,3,0,1,1,0,6.008Z" transform="translate(-397.324 -207.363)" fill="#ccc"/>
  <path id="Tracé_89" data-name="Tracé 89" d="M791.519,261.788H738.076a3,3,0,0,1,0-6.008h53.443a3,3,0,1,1,0,6.008Z" transform="translate(-480.79 -207.363)" fill="#ccc"/>
  <path id="Tracé_90" data-name="Tracé 90" d="M744.651,286.67H651.679a3,3,0,0,1,0-6.008h92.972a3,3,0,0,1,0,6.008Z" transform="translate(-433.136 -220.861)" fill="#ccc"/>
  <path id="Tracé_91" data-name="Tracé 91" d="M646.373,236.56H592.93a3,3,0,0,1,0-6.008h53.443a3,3,0,1,1,0,6.008Z" transform="translate(-397.324 -193.678)" fill="#ccc"/>
  <path id="Tracé_92" data-name="Tracé 92" d="M756.02,236.906H740.84a3,3,0,1,1,0-6.008h15.18a3,3,0,0,1,0,6.008Z" transform="translate(-480.519 -193.865)" fill="#ccc"/>
  <path id="Tracé_93" data-name="Tracé 93" d="M608.109,286.67H592.93a3,3,0,0,1,0-6.008h15.179a3,3,0,0,1,0,6.008Z" transform="translate(-395.921 -220.861)" fill="#ccc"/>
  <path id="Tracé_94" data-name="Tracé 94" d="M646.373,494.788H592.93a3,3,0,0,1,0-6.008h53.443a3,3,0,1,1,0,6.008Z" transform="translate(-397.324 -333.759)" fill="#ccc"/>
  <path id="Tracé_95" data-name="Tracé 95" d="M791.519,494.788H738.076a3,3,0,0,1,0-6.008h53.443a3,3,0,1,1,0,6.008Z" transform="translate(-480.79 -333.759)" fill="#ccc"/>
  <path id="Tracé_96" data-name="Tracé 96" d="M744.651,519.67H651.679a3,3,0,1,1,0-6.008h92.972a3,3,0,1,1,0,6.008Z" transform="translate(-433.136 -347.256)" fill="#ccc"/>
  <path id="Tracé_97" data-name="Tracé 97" d="M646.373,469.56H592.93a3,3,0,0,1,0-6.008h53.443a3,3,0,1,1,0,6.008Z" transform="translate(-397.324 -320.073)" fill="#ccc"/>
  <path id="Tracé_98" data-name="Tracé 98" d="M756.02,469.906H740.84a3,3,0,0,1,0-6.008h15.18a3,3,0,0,1,0,6.008Z" transform="translate(-480.519 -320.261)" fill="#ccc"/>
  <path id="Tracé_99" data-name="Tracé 99" d="M608.109,519.67H592.93a3,3,0,0,1,0-6.008h15.179a3,3,0,0,1,0,6.008Z" transform="translate(-395.921 -347.256)" fill="#ccc"/>
  <path id="Tracé_100" data-name="Tracé 100" d="M653.9,374.428a4.3,4.3,0,0,1-3.03-1.24l-20.09-19.838a4.187,4.187,0,0,1,0-5.959l20.008-19.758a4.439,4.439,0,0,1,6.242.02h0a4.433,4.433,0,0,1,0,6.262l-14.868,14.868a2.477,2.477,0,0,0,0,3.5l14.787,14.787a4.309,4.309,0,0,1-3.05,7.359Z" transform="translate(-418.857 -245.651)" fill="#0274cb"/>
  <path id="Tracé_101" data-name="Tracé 101" d="M747.509,374.428a4.309,4.309,0,0,1-3.05-7.359l14.787-14.787a2.477,2.477,0,0,0,0-3.5l-14.868-14.868a4.428,4.428,0,0,1,0-6.262h0a4.439,4.439,0,0,1,6.242-.02l20.009,19.758a4.187,4.187,0,0,1,0,5.959l-20.09,19.838A4.3,4.3,0,0,1,747.509,374.428Z" transform="translate(-483.863 -245.651)" fill="#0274cb"/>
</svg>
