<svg id="undraw_servers" xmlns="http://www.w3.org/2000/svg" width="260" height="208.119" viewBox="0 0 260 208.119">
  <path id="Tracé_160" data-name="Tracé 160" d="M107.243,168.648a76.145,76.145,0,1,1,53.843-22.3,76.145,76.145,0,0,1-53.843,22.3Zm0-151.7A75.559,75.559,0,1,0,182.8,92.5a75.645,75.645,0,0,0-75.559-75.56Z" transform="translate(23.031 8.435)" fill="#ccc"/>
  <rect id="Rectangle_39" data-name="Rectangle 39" width="76.712" height="57.095" transform="translate(158.547 111.79) rotate(90)" fill="#2f2e41"/>
  <rect id="Rectangle_40" data-name="Rectangle 40" width="76.712" height="30.45" transform="translate(91.644 109.448)" fill="#3f3d56"/>
  <rect id="Rectangle_41" data-name="Rectangle 41" width="76.712" height="30.45" transform="translate(91.644 143.412)" fill="#3f3d56"/>
  <rect id="Rectangle_42" data-name="Rectangle 42" width="76.712" height="30.45" transform="translate(91.644 177.376)" fill="#3f3d56"/>
  <rect id="Rectangle_43" data-name="Rectangle 43" width="76.712" height="4.685" transform="translate(91.644 122.359)" fill="#0274cb"/>
  <rect id="Rectangle_44" data-name="Rectangle 44" width="76.712" height="4.685" transform="translate(91.644 156.323)" fill="#0274cb"/>
  <rect id="Rectangle_45" data-name="Rectangle 45" width="76.712" height="4.685" transform="translate(91.644 190.287)" fill="#0274cb"/>
  <circle id="Ellipse_16" data-name="Ellipse 16" cx="1.757" cy="1.757" r="1.757" transform="translate(151.667 112.083)" fill="#0274cb"/>
  <circle id="Ellipse_17" data-name="Ellipse 17" cx="1.757" cy="1.757" r="1.757" transform="translate(157.815 112.083)" fill="#0274cb"/>
  <circle id="Ellipse_18" data-name="Ellipse 18" cx="1.757" cy="1.757" r="1.757" transform="translate(163.964 112.083)" fill="#0274cb"/>
  <circle id="Ellipse_19" data-name="Ellipse 19" cx="1.757" cy="1.757" r="1.757" transform="translate(151.667 145.462)" fill="#0274cb"/>
  <circle id="Ellipse_20" data-name="Ellipse 20" cx="1.757" cy="1.757" r="1.757" transform="translate(157.815 145.462)" fill="#0274cb"/>
  <circle id="Ellipse_21" data-name="Ellipse 21" cx="1.757" cy="1.757" r="1.757" transform="translate(163.964 145.462)" fill="#0274cb"/>
  <circle id="Ellipse_22" data-name="Ellipse 22" cx="1.757" cy="1.757" r="1.757" transform="translate(151.667 178.84)" fill="#0274cb"/>
  <circle id="Ellipse_23" data-name="Ellipse 23" cx="1.757" cy="1.757" r="1.757" transform="translate(157.815 178.84)" fill="#0274cb"/>
  <circle id="Ellipse_24" data-name="Ellipse 24" cx="1.757" cy="1.757" r="1.757" transform="translate(163.964 178.84)" fill="#0274cb"/>
  <rect id="Rectangle_46" data-name="Rectangle 46" width="260" height="0.586" transform="translate(0 207.534)" fill="#3f3d56"/>
  <path id="Tracé_161" data-name="Tracé 161" d="M56.779,36.312V90.769a4.3,4.3,0,0,1-4.3,4.3H31.321a4.3,4.3,0,0,1-4.3-4.3V36.312a4.3,4.3,0,0,1,4.3-4.3h2.567a2.043,2.043,0,0,0,1.89,2.813H47.843a2.043,2.043,0,0,0,1.89-2.813h2.75a4.3,4.3,0,0,1,4.3,4.3Z" transform="translate(14.041 43.054)" fill="#e6e6e6"/>
  <rect id="Rectangle_47" data-name="Rectangle 47" width="26.937" height="37.477" transform="translate(42.474 85.469)" fill="#fff"/>
  <rect id="Rectangle_48" data-name="Rectangle 48" width="10.751" height="0.614" transform="translate(50.122 111.24)" fill="#e6e6e6"/>
  <rect id="Rectangle_49" data-name="Rectangle 49" width="16.636" height="0.614" transform="translate(50.111 113.496)" fill="#0274cb"/>
  <rect id="Rectangle_50" data-name="Rectangle 50" width="13.055" height="0.614" transform="translate(50.111 115.621)" fill="#e6e6e6"/>
  <rect id="Rectangle_51" data-name="Rectangle 51" width="7.679" height="0.614" transform="translate(50.111 117.746)" fill="#e6e6e6"/>
  <rect id="Rectangle_52" data-name="Rectangle 52" width="11.519" height="0.614" transform="translate(50.111 119.871)" fill="#e6e6e6"/>
  <rect id="Rectangle_53" data-name="Rectangle 53" width="1.229" height="1.229" transform="translate(45.246 111.063)" fill="#e6e6e6"/>
  <rect id="Rectangle_54" data-name="Rectangle 54" width="1.229" height="1.229" transform="translate(45.246 113.188)" fill="#0274cb"/>
  <rect id="Rectangle_55" data-name="Rectangle 55" width="1.229" height="1.229" transform="translate(45.246 115.314)" fill="#e6e6e6"/>
  <rect id="Rectangle_56" data-name="Rectangle 56" width="1.229" height="1.229" transform="translate(45.246 117.439)" fill="#e6e6e6"/>
  <rect id="Rectangle_57" data-name="Rectangle 57" width="1.229" height="1.229" transform="translate(45.246 119.564)" fill="#e6e6e6"/>
  <rect id="Rectangle_58" data-name="Rectangle 58" width="10.833" height="10.833" transform="translate(50.58 90.154)" fill="#e6e6e6"/>
  <rect id="Rectangle_59" data-name="Rectangle 59" width="71.993" height="46.108" transform="translate(94.019 0.041)" fill="#e6e6e6"/>
  <rect id="Rectangle_60" data-name="Rectangle 60" width="59.689" height="22.555" transform="translate(99.446 12.94)" fill="#fff"/>
  <rect id="Rectangle_61" data-name="Rectangle 61" width="14.325" height="0.819" transform="translate(110.321 16.848)" fill="#e6e6e6"/>
  <rect id="Rectangle_62" data-name="Rectangle 62" width="22.166" height="0.819" transform="translate(110.307 19.853)" fill="#0274cb"/>
  <rect id="Rectangle_63" data-name="Rectangle 63" width="17.395" height="0.819" transform="translate(110.307 22.685)" fill="#e6e6e6"/>
  <rect id="Rectangle_64" data-name="Rectangle 64" width="10.232" height="0.819" transform="translate(110.307 25.517)" fill="#e6e6e6"/>
  <rect id="Rectangle_65" data-name="Rectangle 65" width="15.349" height="0.819" transform="translate(110.307 28.349)" fill="#e6e6e6"/>
  <rect id="Rectangle_66" data-name="Rectangle 66" width="1.637" height="1.637" transform="translate(103.825 16.612)" fill="#e6e6e6"/>
  <rect id="Rectangle_67" data-name="Rectangle 67" width="1.637" height="1.637" transform="translate(103.825 19.444)" fill="#0274cb"/>
  <rect id="Rectangle_68" data-name="Rectangle 68" width="1.637" height="1.637" transform="translate(103.825 22.276)" fill="#e6e6e6"/>
  <rect id="Rectangle_69" data-name="Rectangle 69" width="1.637" height="1.637" transform="translate(103.825 25.108)" fill="#e6e6e6"/>
  <rect id="Rectangle_70" data-name="Rectangle 70" width="1.637" height="1.637" transform="translate(103.825 27.94)" fill="#e6e6e6"/>
  <rect id="Rectangle_71" data-name="Rectangle 71" width="14.657" height="14.657" transform="translate(141.549 15.766)" fill="#e6e6e6"/>
  <rect id="Rectangle_72" data-name="Rectangle 72" width="71.993" height="3.059" transform="translate(93.988)" fill="#0274cb"/>
  <circle id="Ellipse_25" data-name="Ellipse 25" cx="0.614" cy="0.614" r="0.614" transform="translate(95.647 0.95)" fill="#fff"/>
  <circle id="Ellipse_26" data-name="Ellipse 26" cx="0.614" cy="0.614" r="0.614" transform="translate(97.799 0.95)" fill="#fff"/>
  <circle id="Ellipse_27" data-name="Ellipse 27" cx="0.614" cy="0.614" r="0.614" transform="translate(99.95 0.95)" fill="#fff"/>
  <rect id="Rectangle_73" data-name="Rectangle 73" width="17.568" height="9.077" transform="translate(196.654 86.317)" fill="#e6e6e6"/>
  <rect id="Rectangle_74" data-name="Rectangle 74" width="17.568" height="9.077" transform="translate(196.654 118.817)" fill="#e6e6e6"/>
  <circle id="Ellipse_28" data-name="Ellipse 28" cx="14.64" cy="14.64" r="14.64" transform="translate(190.798 92.466)" fill="#e6e6e6"/>
  <circle id="Ellipse_29" data-name="Ellipse 29" cx="11.419" cy="11.419" r="11.419" transform="translate(194.019 95.687)" fill="#fff"/>
  <rect id="Rectangle_75" data-name="Rectangle 75" width="8.856" height="0.506" transform="translate(201.698 103.977)" fill="#e2e2e2"/>
  <rect id="Rectangle_76" data-name="Rectangle 76" width="13.703" height="0.506" transform="translate(201.689 105.835)" fill="#0274cb"/>
  <rect id="Rectangle_77" data-name="Rectangle 77" width="10.754" height="0.506" transform="translate(201.689 107.586)" fill="#e2e2e2"/>
  <rect id="Rectangle_78" data-name="Rectangle 78" width="6.326" height="0.506" transform="translate(201.689 109.336)" fill="#e2e2e2"/>
  <rect id="Rectangle_79" data-name="Rectangle 79" width="9.489" height="0.506" transform="translate(201.689 111.087)" fill="#e2e2e2"/>
  <rect id="Rectangle_80" data-name="Rectangle 80" width="1.012" height="1.012" transform="translate(197.682 103.832)" fill="#e2e2e2"/>
  <rect id="Rectangle_81" data-name="Rectangle 81" width="1.012" height="1.012" transform="translate(197.682 105.582)" fill="#0274cb"/>
  <rect id="Rectangle_82" data-name="Rectangle 82" width="1.012" height="1.012" transform="translate(197.682 107.333)" fill="#e2e2e2"/>
  <rect id="Rectangle_83" data-name="Rectangle 83" width="1.012" height="1.012" transform="translate(197.682 109.083)" fill="#e2e2e2"/>
  <rect id="Rectangle_84" data-name="Rectangle 84" width="1.012" height="1.012" transform="translate(197.682 110.834)" fill="#e2e2e2"/>
</svg>
