<svg id="Groupe_17" data-name="Groupe 17" xmlns="http://www.w3.org/2000/svg" width="1920" height="323.684" viewBox="0 0 1920 323.684">
  <path id="Tracé_18" data-name="Tracé 18" d="M0,266.768l45.867.419c45.867.559,137.6,1.4,228.907-4.33,91.52-5.866,182.4-18.436,273.92-8.24,91.307,10.336,183.04,43.3,274.347,57.963,91.52,14.665,182.4,11.034,273.92,9.777,91.307-1.117,183.04.279,274.347-1.816,91.52-2.1,182.4-7.682,273.92-22.626,91.307-14.8,183.04-39.107,228.907-51.119L1920,234.644V0H0Z" fill="#4facf7"/>
  <path id="Tracé_19" data-name="Tracé 19" d="M0,183.153,45.867,191c45.867,7.849,137.6,23.548,228.907,32.313,91.52,8.634,182.4,10.466,273.92.131C640,213.242,731.733,191,823.04,193.88c91.52,2.747,182.4,30.744,273.92,44.48,91.307,13.736,183.04,13.213,274.347,1.439,91.52-11.774,182.4-34.8,273.92-37.416,91.307-2.616,183.04,15.176,228.907,24.2l45.867,8.9V0H0Z" fill="#2b9dfc"/>
  <path id="Tracé_20" data-name="Tracé 20" d="M0,226.8,45.867,216c45.867-10.8,137.6-32.4,228.907-43.56,91.52-10.98,182.4-11.7,273.92,4.32C640,192.6,731.733,225,823.04,241.2c91.52,16.2,182.4,16.2,273.92,3.06,91.307-13.32,183.04-39.6,274.347-56.52,91.52-16.74,182.4-23.94,273.92-16.74,91.307,7.2,183.04,28.8,228.907,39.6L1920,221.4V0H0Z" fill="#008cff"/>
  <path id="Tracé_21" data-name="Tracé 21" d="M0,120.6l45.867,7.74c45.867,7.92,137.6,23.4,228.907,31.32,91.52,7.74,182.4,7.74,273.92,14.4,91.307,6.48,183.04,19.8,274.347,20.7,91.52.9,182.4-10.62,273.92-28.26,91.307-17.64,183.04-41.76,274.347-47.34,91.52-5.76,182.4,6.84,273.92,7.38,91.307.72,183.04-10.8,228.907-16.38L1920,104.4V0H0Z" fill="#007aff"/>
  <path id="Tracé_22" data-name="Tracé 22" d="M0,129.6l45.867-.54c45.867-.72,137.6-1.8,228.907-13.5,91.52-11.7,182.4-34.02,273.92-37.8C640,73.8,731.733,88.2,823.04,86.04c91.52-1.98,182.4-20.7,273.92-28.98,91.307-8.46,183.04-6.66,274.347,1.44,91.52,8.1,182.4,22.5,273.92,22.14,91.307-.18,183.04-15.3,228.907-22.68L1920,50.4V0H0Z" fill="#06f"/>
</svg>
