<svg xmlns="http://www.w3.org/2000/svg" width="1920.001" height="119.265" viewBox="0 0 1920.001 119.265">
  <path id="Intersection_1" data-name="Intersection 1" d="M-30-4200v-119.265c215.794,11.466,425.241,22.639,589.763,31.458l2,.106.052,0c163.144,8.655,281.019,14.907,498.69,20.472,50.446,1.289,105.767,2.529,164.337,3.843l.194,0c192.515,4.315,410.716,9.207,531.738,17.76,18.781,1.315,35.9,2.769,50.893,4.321,14.287,1.481,27.09,3.1,38.056,4.81,10.378,1.62,19.466,3.378,27.013,5.229a125.977,125.977,0,0,1,17.263,5.372V-4200Z" transform="translate(30 4319.265)" fill="#0274cb"/>
</svg>
