<svg xmlns="http://www.w3.org/2000/svg" width="1920.5" height="333.784" viewBox="0 0 1920.5 333.784">
  <g id="Groupe_16" data-name="Groupe 16" transform="translate(0.5 -5399)">
    <rect id="Rectangle_27" data-name="Rectangle 27" width="1920" height="216" transform="translate(0 5399)" fill="#0274cb"/>
    <path id="Soustraction_1" data-name="Soustraction 1" d="M1978,128.784h0c-217.65-11.548-427.424-22.72-590.681-31.458l-1.932-.1h-.022c-163.43-8.657-281.511-14.913-499.566-20.477C835.29,75.456,779.9,74.216,721.257,72.9l-.212,0c-192.83-4.316-411.388-9.208-532.6-17.762-17.879-1.25-34.258-2.625-48.681-4.087-13.8-1.4-26.263-2.923-37.029-4.529-10.234-1.526-19.288-3.179-26.91-4.913A149.257,149.257,0,0,1,57.5,36.371V9.518H1978V128.783Z" transform="translate(-58 5604)" fill="#0274cb"/>
  </g>
</svg>
