<svg xmlns="http://www.w3.org/2000/svg" width="42.45" height="42.45" viewBox="0 0 42.45 42.45">
  <g id="Groupe_13" data-name="Groupe 13" transform="translate(-1756 -2268)">
    <path id="icons8-close" d="M29.06,23.271a1.921,1.921,0,0,0-1.364.565L23.836,27.7a1.927,1.927,0,0,0,0,2.728L37.908,44.5,23.836,58.568a1.927,1.927,0,0,0,0,2.728L27.7,65.155a1.927,1.927,0,0,0,2.728,0L44.5,51.083,58.568,65.155a1.927,1.927,0,0,0,2.728,0L65.155,61.3a1.927,1.927,0,0,0,0-2.728L51.083,44.5,65.155,30.424a1.927,1.927,0,0,0,0-2.728L61.3,23.836a1.927,1.927,0,0,0-2.728,0L44.5,37.908,30.424,23.836A1.922,1.922,0,0,0,29.06,23.271Z" transform="translate(1732.729 2244.729)" fill="#464646"/>
  </g>
</svg>
