<svg xmlns="http://www.w3.org/2000/svg" width="69.143" height="97.195" viewBox="0 0 69.143 97.195">
  <path id="currency-bitcoin" d="M47.576,100.173v9.346a1.87,1.87,0,0,0,1.869,1.869h7.477a1.869,1.869,0,0,0,1.869-1.869v-9.346h3.738v9.346a1.87,1.87,0,0,0,1.869,1.869h7.477a1.869,1.869,0,0,0,1.869-1.869v-9.346h.628c14.893,0,25.54-7.723,25.54-21.084,0-11.23-7.529-17.368-16.344-18.243v-.658c7.252-1.809,12.583-7.282,12.583-16.374,0-11.454-8.6-18.407-21.719-18.407h-.688V16.061a1.869,1.869,0,0,0-1.869-1.869H64.4a1.869,1.869,0,0,0-1.869,1.869v9.346H58.245V16.061a1.869,1.869,0,0,0-1.869-1.869H49.445a1.869,1.869,0,0,0-1.869,1.869v9.346l-14.938.082a1.869,1.869,0,0,0-1.869,1.869v7.394a1.862,1.862,0,0,0,1.854,1.869l5.645-.037a5.607,5.607,0,0,1,5.57,5.607V83.351a5.607,5.607,0,0,1-5.607,5.607l-5.592.082a1.869,1.869,0,0,0-1.869,1.869v7.477a1.87,1.87,0,0,0,1.869,1.869ZM58.245,36.525H71.1c6.774,0,10.751,3.723,10.751,9.809,0,6.512-4.3,10.183-14.034,10.183h-9.57V36.525Zm0,30.288H72c8.5,0,13.129,4.336,13.129,11.394,0,7.125-4.68,10.841-16.134,10.841H58.245V66.82Z" transform="translate(-30.769 -14.192)" fill="#43494e"/>
</svg>
