<svg xmlns="http://www.w3.org/2000/svg" width="81" height="97.195" viewBox="0 0 81 97.195">
  <g id="server" transform="translate(-8.098)">
    <path id="Tracé_160" data-name="Tracé 160" d="M8.1,16.2C8.1,7.253,26.231,0,48.6,0S89.1,7.253,89.1,16.2v8.1c0,8.948-18.133,16.2-40.5,16.2S8.1,33.247,8.1,24.3Z" fill="#43494e"/>
    <path id="Tracé_161" data-name="Tracé 161" d="M8.1,38.477V56.7c0,8.936,18.133,16.2,40.5,16.2s40.5-7.253,40.5-16.2V38.477a39.546,39.546,0,0,1-8.857,4.8c-8.5,3.4-19.694,5.321-31.643,5.321s-23.139-1.926-31.637-5.321a39.534,39.534,0,0,1-8.857-4.8Z" fill="#43494e"/>
    <path id="Tracé_162" data-name="Tracé 162" d="M89.1,70.88a39.546,39.546,0,0,1-8.857,4.793c-8.5,3.4-19.694,5.321-31.649,5.321s-23.139-1.92-31.637-5.321a39.546,39.546,0,0,1-8.857-4.8v10.12c0,8.948,18.133,16.2,40.5,16.2s40.5-7.253,40.5-16.2Z" fill="#43494e"/>
  </g>
</svg>
