<svg xmlns="http://www.w3.org/2000/svg" width="535.367" height="558.179" viewBox="0 0 535.367 558.179">
  <g id="undraw_mathematics_-4-otb_1_" data-name="undraw_mathematics_-4-otb (1)" transform="translate(0)">
    <path id="Tracé_23" data-name="Tracé 23" d="M780.233,736.108c0,21.014-113.573,38.051-253.675,38.051s-253.676-17.037-253.676-38.051c0-14.877,56.93-27.765,139.9-34.017,34.213-2.586,72.87-4.034,113.778-4.034,16.816,0,33.248.246,49.139.712C692.281,702.206,780.233,717.615,780.233,736.108Z" transform="translate(-272.882 -215.98)" fill="#3f3d56"/>
    <ellipse id="Ellipse_1" data-name="Ellipse 1" cx="97.379" cy="11.865" rx="97.379" ry="11.865" transform="translate(123.565 504.171)" opacity="0.1"/>
    <ellipse id="Ellipse_2" data-name="Ellipse 2" cx="92.06" cy="98.197" rx="92.06" ry="98.197" transform="translate(128.474 328.235)" fill="#3f3d56"/>
    <rect id="Rectangle_11" data-name="Rectangle 11" width="57.282" height="52.372" transform="translate(192.303 484.532)" fill="#1d2d39"/>
    <path id="Tracé_24" data-name="Tracé 24" d="M395.773,607.614l-3.273,18,21.276,3.273,13.911-8.183-.818-13.093Z" transform="translate(-71.314 -110.398)" fill="#575a89"/>
    <path id="Tracé_25" data-name="Tracé 25" d="M536.934,303.452s-1.637,18.821-5.728,19.639,9,33.551,9,33.551h19.639l15.548-4.092-7.365-18s-9.82-13.093-2.455-23.731S536.934,303.452,536.934,303.452Z" transform="translate(-319.673 -144.197)" fill="#a0616a"/>
    <path id="Tracé_26" data-name="Tracé 26" d="M536.934,303.452s-1.637,18.821-5.728,19.639,9,33.551,9,33.551h19.639l15.548-4.092-7.365-18s-9.82-13.093-2.455-23.731S536.934,303.452,536.934,303.452Z" transform="translate(-319.673 -144.197)" opacity="0.1"/>
    <path id="Tracé_27" data-name="Tracé 27" d="M485.985,478.83s-21.276,40.915-4.092,49.1,21.276,7.365,21.276,9.82-3.273,1.637-1.637,5.728-3.273,20.458,1.637,30.278,3.273,17.184,3.273,17.184,0,.818,1.637,4.092,2.455,5.728,1.637,7.365-5.728,12.275-.818,14.73,30.278,4.092,32.732,0-2.455-6.546,0-9,4.092-3.273,2.455-4.91-3.273-22.094-3.273-22.094,4.091-23.731,2.455-27-4.091-6.547-2.455-9,3.273-1.637,4.091-4.91,2.455-10.638,2.455-10.638l9-.818,21.276,4.092s23.731,26.186,49.917,34.369c0,0,7.365,7.365,9.82,7.365s2.455,0,1.637,1.637-3.273,1.637-1.637,3.273,4.092-.818,2.455,1.637-3.273,2.455-1.636,4.092-.818,10.638-.818,11.456-7.365,77.74-4.91,79.376,36.824,6.547,39.279,0-1.637-14.73-1.637-14.73,12.275-98.2,9-104.743-14.73-36.006-76.1-54.827c0,0-17.185-3.273-17.185-5.728s-1.637-18-4.91-18.821-22.094-1.637-22.094-1.637l-23.731,7.365-32.732-5.728Z" transform="translate(-309.639 -175.554)" fill="#2f2e41"/>
    <path id="Tracé_28" data-name="Tracé 28" d="M522.2,647.012l-4.092,14.73s-3.273,23.731.818,29.459c3.214,4.5,8.952,10.008,19.594,10.975a13.151,13.151,0,0,0,13.73-9.1,4.094,4.094,0,0,0,.227-1.059c0-1.637-2.455-21.276-2.455-21.276l-4.092-20.458-.818-5.728Z" transform="translate(-317.212 -206.26)" fill="#2f2e41"/>
    <path id="Tracé_29" data-name="Tracé 29" d="M667.92,731.876s-4.091-4.092-4.91,0-4.092,21.276,1.637,22.094,60.555,9,66.283,5.728,16.366-8.183,9.82-10.638-25.368-9.82-25.368-9.82-10.638-13.911-12.275-14.73-10.638.818-14.729,4.091S667.92,731.876,667.92,731.876Z" transform="translate(-343.461 -220.749)" fill="#2f2e41"/>
    <circle id="Ellipse_3" data-name="Ellipse 3" cx="25.368" cy="25.368" r="25.368" transform="translate(211.533 125.704)" fill="#a0616a"/>
    <path id="Tracé_30" data-name="Tracé 30" d="M545.331,356.309l-9.82-10.638-10.885-21.276s-7.936-2.455-9.573,1.637-31.1,17.184-31.1,17.184,7.365,68.738,4.092,75.284-9,32.732-4.092,35.187,27.822,0,35.187,3.273,28.641,3.273,34.369-.818,7.365-7.365,13.093-4.91c4.877,2.09,16.277-69.361,19.559-90.653a9.692,9.692,0,0,0-4.016-9.418c-7.342-5.15-20.566-14.026-22.907-12.855C555.969,339.943,545.331,356.309,545.331,356.309Z" transform="translate(-310.886 -147.956)" fill="#575a89"/>
    <path id="Tracé_31" data-name="Tracé 31" d="M599.562,359.557h0a9.7,9.7,0,0,1,7.292,8.343l6.62,59.576s-16.366,35.187-24.549,11.456S599.562,359.557,599.562,359.557Z" transform="translate(-329.93 -154.478)" fill="#575a89"/>
    <path id="Tracé_32" data-name="Tracé 32" d="M597.462,448.467l18-4.91s3.273,22.913,6.546,22.913-11.456,13.093-18.821,11.456-18-7.365-18.821-11.456,7.365-21.276,7.365-21.276Z" transform="translate(-329.466 -169.74)" fill="#575a89"/>
    <path id="Tracé_33" data-name="Tracé 33" d="M535.3,294.84c1.725-3.8,1.425-8.24,2.851-12.165a14.506,14.506,0,0,1,22.056-6.858c1.834,1.308,3.674,3.146,5.913,2.9,2.411-.269,4.562-2.959,6.779-1.973,2.457,1.093,1.793,5.5,4.283,6.513a3.146,3.146,0,0,0,3.615-1.486,9.184,9.184,0,0,0,1.052-4.072c.343-3.49.654-7.184-.86-10.347a24.778,24.778,0,0,1-1.66-3.347,11.446,11.446,0,0,1-.316-3.3c-.014-4.1-.313-8.381-2.378-11.926-2.291-3.934-6.525-6.449-10.943-7.547s-9.046-.929-13.582-.545c-7.5.635-15.318,2-21.226,6.657a8.3,8.3,0,0,0-2.04,2.144,11.068,11.068,0,0,0-1.087,3.143,65.017,65.017,0,0,1-5.7,14.956,32.451,32.451,0,0,0-2.942,6.355,8.226,8.226,0,0,0,.727,6.76c1.068,1.577,2.775,2.418,4.116,3.707s1.95,3.735,3.422,4.7c1.285.845,2.824.248,4.135,1.144C533.2,291.4,533.317,293.919,535.3,294.84Z" transform="translate(-317.548 -132.826)" fill="#2f2e41"/>
    <path id="Tracé_34" data-name="Tracé 34" d="M564.382,377.467l2.455-4.91s36.006,10.638,43.37,20.458c0,0,18-11.456,27.823-9.82l9.82,1.637-30.278,27-38.46-3.273Z" transform="translate(-325.845 -156.84)" fill="#f2f2f2"/>
    <path id="Tracé_35" data-name="Tracé 35" d="M554.933,372.557,521.382,419.2l48.28,23.731s4.514,2.455,7.985,0l32.112-14.73,30.277-43.37-30.277,15.548s-3.273-6.546-9.82-3.273Z" transform="translate(-318.032 -156.84)" fill="#1d2d39"/>
    <path id="Tracé_36" data-name="Tracé 36" d="M624.473,463.237l6.547-17.184s14.729-18.821,6.547-27.822-17.185,26.186-17.185,26.186Z" transform="translate(-336.02 -164.87)" fill="#a0616a"/>
    <path id="Tracé_37" data-name="Tracé 37" d="M533.079,462.327l14.284-11.581s22.184-8.891,19.622-20.783-28,14.03-28,14.03Z" transform="translate(-320.157 -166.703)" fill="#a0616a"/>
    <path id="Tracé_38" data-name="Tracé 38" d="M485.539,367.86h-.818s-12.684-15.139-15.139,5.319-10.638,88.377,10.638,90.832,36.415-10.229,36.415-10.229,15.548-23.731,9.82-23.731c-2.771,0-10.309-1.245-17.185-.818-7.334.455-13.924,2.521-13.5.409C496.586,425.551,508.451,373.588,485.539,367.86Z" transform="translate(-307.965 -155.007)" opacity="0.1"/>
    <path id="Tracé_39" data-name="Tracé 39" d="M483.4,349.194l-3.273-1.637s-13.093,2.455-15.548,22.913S453.944,458.847,475.22,461.3s49.917-3.273,49.917-3.273,5.728-31.1,0-31.1-35.187,4.092-34.369,0S506.315,354.922,483.4,349.194Z" transform="translate(-307.057 -152.297)" fill="#575a89"/>
    <path id="Tracé_40" data-name="Tracé 40" d="M338,350.043l9.023-13.83,5.706,22.832L338,365.591Z" transform="translate(-61.412 -61.087)" fill="#575a89"/>
    <circle id="Ellipse_4" data-name="Ellipse 4" cx="22.094" cy="22.094" r="22.094" transform="translate(69.125 47.555)" fill="#f2f2f2"/>
    <rect id="Rectangle_12" data-name="Rectangle 12" width="52.372" height="52.372" transform="translate(65.034 234.129)" fill="#f2f2f2"/>
    <path id="Tracé_41" data-name="Tracé 41" d="M366.114,0l13.256,22.959,13.255,22.959H339.6l13.255-22.959Z" transform="translate(-61.703)" fill="#f2f2f2"/>
    <path id="Tracé_42" data-name="Tracé 42" d="M904.7,262.693q-.475,14.693-7.156,23.554t-15.876,8.862q-7.489,0-13.128-8.673t-5.64-26.682q0-3.981.19-7.583t.474-6.824l3.318-31.184h-21.9q-5.686,59.146-9.336,70.378t-12.369,11.232a10.459,10.459,0,0,1-7.014-2.938,9.872,9.872,0,0,1-3.317-7.772q0-4.358,6.872-12.18t7.63-14.265l5.687-44.454h-9.193a16.293,16.293,0,0,0-7.441,1.848,14.038,14.038,0,0,0-5.355,4.313l-4.076,6.066h-3.318q4.643-14.406,11.422-21.658t15.592-7.251h72.416v16.682H878.734q-1.137,11.374-1.753,22.748t-.616,22.843q0,7.773,3.6,12.606a10.845,10.845,0,0,0,9,4.834,11.857,11.857,0,0,0,6.966-2.7,9.8,9.8,0,0,0,4.123-7.061q.284-2.084.427-3.27t.142-1.469Z" transform="translate(-369.338 -125.03)" fill="#1d2d39"/>
    <path id="Tracé_43" data-name="Tracé 43" d="M904.7,262.693q-.475,14.693-7.156,23.554t-15.876,8.862q-7.489,0-13.128-8.673t-5.64-26.682q0-3.981.19-7.583t.474-6.824l3.318-31.184h-21.9q-5.686,59.146-9.336,70.378t-12.369,11.232a10.459,10.459,0,0,1-7.014-2.938,9.872,9.872,0,0,1-3.317-7.772q0-4.358,6.872-12.18t7.63-14.265l5.687-44.454h-9.193a16.293,16.293,0,0,0-7.441,1.848,14.038,14.038,0,0,0-5.355,4.313l-4.076,6.066h-3.318q4.643-14.406,11.422-21.658t15.592-7.251h72.416v16.682H878.734q-1.137,11.374-1.753,22.748t-.616,22.843q0,7.773,3.6,12.606a10.845,10.845,0,0,0,9,4.834,11.857,11.857,0,0,0,6.966-2.7,9.8,9.8,0,0,0,4.123-7.061q.284-2.084.427-3.27t.142-1.469Z" transform="translate(-369.338 -125.03)" opacity="0.1"/>
    <path id="Tracé_44" data-name="Tracé 44" d="M904.7,259.074q-.475,14.693-7.156,23.554t-15.876,8.863q-7.489,0-13.128-8.673t-5.64-26.682q0-3.981.19-7.583t.474-6.824l3.318-31.184h-21.9q-5.686,59.146-9.336,70.378t-12.369,11.232a10.459,10.459,0,0,1-7.014-2.938,9.872,9.872,0,0,1-3.317-7.772q0-4.358,6.872-12.18T827.455,255l5.687-44.454h-9.193a16.293,16.293,0,0,0-7.441,1.848,14.039,14.039,0,0,0-5.355,4.313l-4.076,6.066h-3.318q4.643-14.406,11.422-21.658t15.592-7.251h72.416v16.682H878.734q-1.137,11.374-1.753,22.748t-.616,22.843q0,7.773,3.6,12.606a10.845,10.845,0,0,0,9,4.834,11.857,11.857,0,0,0,6.966-2.7,9.8,9.8,0,0,0,4.123-7.061q.284-2.084.427-3.27t.142-1.469Z" transform="translate(-369.338 -124.372)" fill="#1d2d39"/>
  </g>
</svg>
