<svg xmlns="http://www.w3.org/2000/svg" width="1920" height="255.353" viewBox="0 0 1920 255.353">
  <g id="Groupe_16" data-name="Groupe 16" transform="translate(0 -824.647)">
    <path id="Tracé_8" data-name="Tracé 8" d="M0,360l45.867,7.629c45.867,7.523,137.6,22.78,228.907,32.316,91.52,9.536,182.4,13.35,273.92,13.562,91.307.212,183.04-3.391,274.347-14.622,91.52-11.337,182.4-30.409,273.92-25.641,91.307,4.768,183.04,33.376,274.347,37.932,91.52,4.662,182.4-14.834,273.92-25.217,91.307-10.384,183.04-11.867,228.907-12.5l45.867-.742V615.353H0Z" transform="translate(0 464.647)" fill="#06f"/>
    <path id="Tracé_9" data-name="Tracé 9" d="M0,449.8l45.867.863c45.867.863,137.6,2.59,228.907-5.438,91.52-8.114,182.4-25.9,273.92-31.939,91.307-6.043,183.04-.345,274.347,4.4,91.52,4.748,182.4,8.546,273.92,16.574,91.307,8.028,183.04,20.458,274.347,14.934,91.52-5.438,182.4-28.745,273.92-29.349,91.307-.518,183.04,21.58,228.907,32.716L1920,463.611V574.966H0Z" transform="translate(0 505.034)" fill="#007aff"/>
    <path id="Tracé_10" data-name="Tracé 10" d="M0,514.087l45.867,2.271c45.867,2.271,137.6,6.811,228.907-1.968,91.52-8.931,182.4-31.03,273.92-29.819,91.307,1.211,183.04,26.035,274.347,22.7,91.52-3.33,182.4-34.512,273.92-37.388,91.307-2.725,183.04,23.008,274.347,33.906,91.52,10.747,182.4,6.812,273.92-4.844,91.307-11.655,183.04-30.727,228.907-40.415L1920,449V679.077H0Z" transform="translate(0 400.923)" fill="#008cff"/>
    <path id="Tracé_11" data-name="Tracé 11" d="M0,498.324l45.867-2.858c45.867-2.858,137.6-8.575,228.907-10.719,91.52-2.144,182.4-.715,273.92,11.719C640,508.757,731.733,532.195,823.04,534.053c91.52,1.858,182.4-17.578,273.92-19.579,91.307-1.858,183.04,13.863,274.347,21.294,91.52,7.289,182.4,6.431,273.92-1,91.307-7.432,183.04-21.151,228.907-28.154l45.867-6.86V651.242H0Z" transform="translate(0 428.758)" fill="#2b9dfc"/>
    <path id="Tracé_12" data-name="Tracé 12" d="M0,556.881l45.867-2.156c45.867-1.977,137.6-6.289,228.907-.539,91.52,5.75,182.4,21.2,273.92,25.158C640,583.3,731.733,575.39,823.04,569.46c91.52-5.93,182.4-10.243,273.92-12.04,91.307-1.8,183.04-1.078,274.347-5.571,91.52-4.492,182.4-14.2,273.92-8.985,91.307,5.032,183.04,24.8,228.907,34.682L1920,587.43v61.1H0Z" transform="translate(0 431.472)" fill="#4facf7"/>
  </g>
</svg>
